<svg xmlns="http://www.w3.org/2000/svg" width="285" height="71" viewBox="0 0 285 71"><path fill="#ffffff" d="M25.40 59.40L25.40 59.40Q31.20 59.40 33.90 57.15Q36.60 54.90 36.60 51.50L36.60 51.50Q36.60 48.40 34.50 46.55Q32.40 44.70 28.10 43.40L28.10 43.40L21.70 41.40Q17.90 40.20 14.80 38.70Q11.70 37.20 9.50 35.15Q7.30 33.10 6.10 30.35Q4.90 27.60 4.90 23.80L4.90 23.80Q4.90 15.70 11 10.95Q17.10 6.20 27.70 6.20L27.70 6.20Q31.90 6.20 35.45 6.85Q39 7.50 41.60 8.65Q44.20 9.80 45.65 11.50Q47.10 13.20 47.10 15.30L47.10 15.30Q47.10 17.30 46.15 18.75Q45.20 20.20 43.80 21.10L43.80 21.10Q41.40 19.40 37.45 18.15Q33.50 16.90 28.80 16.90L28.80 16.90Q23.60 16.90 20.90 18.75Q18.20 20.60 18.20 23.80L18.20 23.80Q18.20 26.40 20.05 27.80Q21.90 29.20 25.90 30.50L25.90 30.50L31.60 32.30Q40.30 34.90 45.10 39.40Q49.90 43.90 49.90 51.60L49.90 51.60Q49.90 55.70 48.30 59.10Q46.70 62.50 43.65 64.95Q40.60 67.40 36.05 68.75Q31.50 70.10 25.70 70.10L25.70 70.10Q21.10 70.10 17.25 69.30Q13.40 68.50 10.60 67.15Q7.80 65.80 6.25 63.95Q4.70 62.10 4.70 59.90L4.70 59.90Q4.70 57.60 6.05 55.95Q7.40 54.30 9.20 53.50L9.20 53.50Q11.70 55.70 15.80 57.55Q19.90 59.40 25.40 59.40ZM78.70 60.40L78.70 60.40Q81.60 60.40 84 59.85Q86.40 59.30 87.50 58.50L87.50 58.50L87.50 47.40L77.80 48.30Q73.80 48.70 71.70 50.05Q69.60 51.40 69.60 54.30L69.60 54.30Q69.60 57.20 71.75 58.80Q73.90 60.40 78.70 60.40ZM78.30 19.70L78.30 19.70Q88.10 19.70 93.95 23.90Q99.80 28.10 99.80 36.90L99.80 36.90L99.80 60Q99.80 62.40 98.60 63.80Q97.40 65.20 95.60 66.30L95.60 66.30Q92.80 68 88.50 69Q84.20 70 78.70 70L78.70 70Q68.70 70 62.95 66.15Q57.20 62.30 57.20 54.60L57.20 54.60Q57.20 47.90 61.45 44.35Q65.70 40.80 73.80 40L73.80 40L87.50 38.60L87.50 36.80Q87.50 33 84.75 31.20Q82 29.40 77 29.40L77 29.40Q73.10 29.40 69.40 30.35Q65.70 31.30 62.80 32.70L62.80 32.70Q61.70 31.90 60.95 30.55Q60.20 29.20 60.20 27.60L60.20 27.60Q60.20 25.60 61.15 24.35Q62.10 23.10 64.20 22.10L64.20 22.10Q67.10 20.90 70.80 20.30Q74.50 19.70 78.30 19.70ZM136.10 19.70L136.10 19.70Q140.90 19.70 145.05 21.25Q149.20 22.80 152.30 25.95Q155.40 29.10 157.15 33.75Q158.90 38.40 158.90 44.70L158.90 44.70Q158.90 51 157.10 55.70Q155.30 60.40 152 63.60Q148.70 66.80 144.05 68.40Q139.40 70 133.70 70L133.70 70Q127.90 70 123.60 68.60Q119.30 67.20 116.50 65.30L116.50 65.30Q114.40 63.90 113.40 62.25Q112.40 60.60 112.40 58.30L112.40 58.30L112.40 3.50Q113.20 3.20 114.75 2.95Q116.30 2.70 118.20 2.70L118.20 2.70Q121.70 2.70 123.40 4Q125.10 5.30 125.10 8.60L125.10 8.60L125.10 22.30Q127.20 21.20 129.95 20.45Q132.70 19.70 136.10 19.70ZM133.90 29.70L133.90 29.70Q131.20 29.70 128.95 30.60Q126.70 31.50 125 32.60L125 32.60L125 57.60Q126.30 58.40 128.50 59.15Q130.70 59.90 133.60 59.90L133.60 59.90Q139.20 59.90 142.60 56.15Q146 52.40 146 44.70L146 44.70Q146 36.90 142.65 33.30Q139.30 29.70 133.90 29.70ZM193.10 19.70L193.10 19.70Q197.90 19.70 202.05 21.25Q206.20 22.80 209.30 25.95Q212.40 29.10 214.15 33.75Q215.90 38.40 215.90 44.70L215.90 44.70Q215.90 51 214.10 55.70Q212.30 60.40 209 63.60Q205.70 66.80 201.05 68.40Q196.40 70 190.70 70L190.70 70Q184.90 70 180.60 68.60Q176.30 67.20 173.50 65.30L173.50 65.30Q171.40 63.90 170.40 62.25Q169.40 60.60 169.40 58.30L169.40 58.30L169.40 3.50Q170.20 3.20 171.75 2.95Q173.30 2.70 175.20 2.70L175.20 2.70Q178.70 2.70 180.40 4Q182.10 5.30 182.10 8.60L182.10 8.60L182.10 22.30Q184.20 21.20 186.95 20.45Q189.70 19.70 193.10 19.70ZM190.90 29.70L190.90 29.70Q188.20 29.70 185.95 30.60Q183.70 31.50 182 32.60L182 32.60L182 57.60Q183.30 58.40 185.50 59.15Q187.70 59.90 190.60 59.90L190.60 59.90Q196.20 59.90 199.60 56.15Q203 52.40 203 44.70L203 44.70Q203 36.90 199.65 33.30Q196.30 29.70 190.90 29.70ZM226.70 63.30L226.70 21.50Q227.50 21.30 229.05 21Q230.60 20.70 232.40 20.70L232.40 20.70Q236 20.70 237.65 22Q239.30 23.30 239.30 26.60L239.30 26.60L239.30 68.40Q238.50 68.60 236.95 68.90Q235.40 69.20 233.60 69.20L233.60 69.20Q230 69.20 228.35 67.90Q226.70 66.60 226.70 63.30L226.70 63.30ZM225.70 7L225.70 7Q225.70 4.10 227.75 2.05Q229.80 0 233 0L233 0Q236.20 0 238.20 2.05Q240.20 4.10 240.20 7L240.20 7Q240.20 10 238.20 12.05Q236.20 14.10 233 14.10L233 14.10Q229.80 14.10 227.75 12.05Q225.70 10 225.70 7ZM265.10 32.60L265.10 68.40Q264.20 68.60 262.70 68.90Q261.20 69.20 259.30 69.20L259.30 69.20Q255.80 69.20 254.10 67.90Q252.40 66.60 252.40 63.30L252.40 63.30L252.40 31.60Q252.40 29 253.60 27.20Q254.80 25.40 257.10 24L257.10 24Q260.20 22.10 264.75 20.90Q269.30 19.70 274.60 19.70L274.60 19.70Q284.10 19.70 284.10 25.60L284.10 25.60Q284.10 27 283.65 28.25Q283.20 29.50 282.70 30.30L282.70 30.30Q280.40 29.80 277 29.80L277 29.80Q273.50 29.80 270.40 30.60Q267.30 31.40 265.10 32.60L265.10 32.60Z"></path></svg>