<svg xmlns="http://www.w3.org/2000/svg" width="273" height="68" viewBox="0 0 273 68"><path fill="#0b0b15" d="M25.70 60.30L25.70 60.30Q32.40 60.30 35.85 57.25Q39.30 54.20 39.30 49.40L39.30 49.40Q39.30 45.20 36.65 42.60Q34 40 28.30 38.30L28.30 38.30L19.60 35.70Q13.20 33.80 9.55 30.10Q5.90 26.40 5.90 20.10L5.90 20.10Q5.90 16.30 7.35 13.25Q8.80 10.20 11.50 8.10Q14.20 6.00 17.95 4.85Q21.70 3.70 26.40 3.70L26.40 3.70Q30.40 3.70 33.85 4.35Q37.30 5.00 39.85 6.15Q42.40 7.30 43.80 8.70Q45.20 10.10 45.20 11.60L45.20 11.60Q45.20 13.00 44.50 14.00Q43.80 15.00 42.70 15.60L42.70 15.60Q40.10 13.60 35.95 12.10Q31.80 10.60 26.70 10.60L26.70 10.60Q20.80 10.60 17.45 13.10Q14.10 15.60 14.10 20.10L14.10 20.10Q14.10 23.60 16.50 25.80Q18.90 28.00 24.50 29.60L24.50 29.60L30.60 31.40Q38.50 33.70 43.05 37.85Q47.60 42 47.60 49.40L47.60 49.40Q47.60 57.30 41.90 62.20Q36.20 67.10 25.70 67.10L25.70 67.10Q21.10 67.10 17.35 66.30Q13.60 65.50 10.95 64.20Q8.30 62.90 6.85 61.35Q5.40 59.80 5.40 58.30L5.40 58.30Q5.40 56.60 6.45 55.45Q7.50 54.30 8.90 53.80L8.90 53.80Q10 54.90 11.60 56.05Q13.20 57.20 15.30 58.15Q17.40 59.10 20 59.70Q22.60 60.30 25.70 60.30ZM76.30 60.60L76.30 60.60Q80.50 60.60 83.25 59.75Q86 58.90 87.20 58.10L87.20 58.10L87.20 43.60L74.80 44.90Q69.60 45.40 67.10 47.25Q64.60 49.10 64.60 52.70L64.60 52.70Q64.60 56.50 67.50 58.55Q70.40 60.60 76.30 60.60ZM76.20 18.30L76.20 18.30Q84.90 18.30 90 22.20Q95.10 26.10 95.10 34.50L95.10 34.50L95.10 58.20Q95.10 60.40 94.25 61.55Q93.40 62.70 91.70 63.70L91.70 63.70Q89.30 65.10 85.35 66.15Q81.40 67.20 76.30 67.20L76.30 67.20Q66.90 67.20 61.75 63.50Q56.60 59.80 56.60 52.80L56.60 52.80Q56.60 46.20 60.90 42.85Q65.20 39.50 73 38.70L73 38.70L87.20 37.30L87.20 34.50Q87.20 29.50 84.20 27.20Q81.20 24.90 76.10 24.90L76.10 24.90Q71.90 24.90 68.20 26.10Q64.50 27.30 61.60 28.80L61.60 28.80Q60.80 28.10 60.15 27.20Q59.50 26.30 59.50 25.20L59.50 25.20Q59.50 23.80 60.20 22.90Q60.90 22.00 62.40 21.20L62.40 21.20Q65.10 19.80 68.60 19.05Q72.10 18.30 76.20 18.30ZM130.30 18.30L130.30 18.30Q134.90 18.30 138.90 19.80Q142.90 21.30 145.85 24.30Q148.80 27.30 150.45 31.90Q152.10 36.50 152.10 42.70L152.10 42.70Q152.10 49 150.40 53.60Q148.70 58.20 145.65 61.20Q142.60 64.20 138.30 65.65Q134.00 67.10 128.90 67.10L128.90 67.10Q124.00 67.10 120.05 65.95Q116.10 64.80 113.60 63.30L113.60 63.30Q111.50 62 110.70 60.75Q109.90 59.50 109.90 57.40L109.90 57.40L109.90 1Q110.40 0.80 111.45 0.55Q112.50 0.30 113.70 0.30L113.70 0.30Q117.90 0.30 117.90 3.90L117.90 3.90L117.90 21.80Q120.10 20.40 123.15 19.35Q126.20 18.30 130.30 18.30ZM129.10 24.90L129.10 24.90Q125.60 24.90 122.75 26.15Q119.90 27.40 117.90 29.10L117.90 29.10L117.90 57.40Q119.40 58.50 122.25 59.50Q125.10 60.50 128.90 60.50L128.90 60.50Q132.30 60.50 135.05 59.45Q137.80 58.40 139.80 56.20Q141.80 54 142.90 50.65Q144.00 47.30 144.00 42.70L144.00 42.70Q144.00 38.10 142.90 34.70Q141.80 31.30 139.80 29.15Q137.80 27.00 135.05 25.95Q132.30 24.90 129.10 24.90ZM185.20 18.30L185.20 18.30Q189.80 18.30 193.80 19.80Q197.80 21.30 200.75 24.30Q203.70 27.30 205.35 31.90Q207.00 36.50 207.00 42.70L207.00 42.70Q207.00 49 205.30 53.60Q203.60 58.20 200.55 61.20Q197.50 64.20 193.20 65.65Q188.90 67.10 183.80 67.10L183.80 67.10Q178.90 67.10 174.95 65.95Q171.00 64.80 168.50 63.30L168.50 63.30Q166.40 62 165.60 60.75Q164.80 59.50 164.80 57.40L164.80 57.40L164.80 1Q165.30 0.80 166.35 0.55Q167.40 0.30 168.60 0.30L168.60 0.30Q172.80 0.30 172.80 3.90L172.80 3.90L172.80 21.80Q175.00 20.40 178.05 19.35Q181.10 18.30 185.20 18.30ZM184.00 24.90L184.00 24.90Q180.50 24.90 177.65 26.15Q174.80 27.40 172.80 29.10L172.80 29.10L172.80 57.40Q174.30 58.50 177.15 59.50Q180.00 60.50 183.80 60.50L183.80 60.50Q187.20 60.50 189.95 59.45Q192.70 58.40 194.70 56.20Q196.70 54 197.80 50.65Q198.90 47.30 198.90 42.70L198.90 42.70Q198.90 38.10 197.80 34.70Q196.70 31.30 194.70 29.15Q192.70 27.00 189.95 25.95Q187.20 24.90 184.00 24.90ZM228.00 22.80L228.00 65.60Q227.50 65.80 226.50 66.05Q225.50 66.30 224.30 66.30L224.30 66.30Q220.00 66.30 220.00 62.70L220.00 62.70L220.00 19.80Q220.50 19.60 221.55 19.35Q222.60 19.10 223.80 19.10L223.80 19.10Q228.00 19.10 228.00 22.80L228.00 22.80ZM218.80 5.00L218.80 5.00Q218.80 2.90 220.25 1.45Q221.70 0 224.00 0L224.00 0Q226.30 0 227.70 1.45Q229.10 2.90 229.10 5.00L229.10 5.00Q229.10 7.10 227.70 8.55Q226.30 10.00 224.00 10.00L224.00 10.00Q221.70 10.00 220.25 8.55Q218.80 7.10 218.80 5.00ZM251.60 28.20L251.60 65.60Q251.10 65.80 250.10 66.05Q249.10 66.30 247.90 66.30L247.90 66.30Q243.60 66.30 243.60 62.70L243.60 62.70L243.60 28.80Q243.60 26.50 244.45 25.15Q245.30 23.80 247.30 22.50L247.30 22.50Q249.90 20.80 254.35 19.55Q258.80 18.30 264.40 18.30L264.40 18.30Q272.40 18.30 272.40 22.30L272.40 22.30Q272.40 23.30 272.10 24.15Q271.80 25.00 271.30 25.60L271.30 25.60Q270.30 25.40 268.70 25.20Q267.10 25.00 265.50 25.00L265.50 25.00Q260.90 25.00 257.40 25.95Q253.90 26.90 251.60 28.20L251.60 28.20Z"></path></svg>